# xmcd
#
# Track frame offsets:
#	150
#	16541
#	38248
#	56771
#	76948
#	96288
#	117156
#	136147
#	152560
#	170525
#	191572
#
# Disc length: 2698 seconds
#
# Revision: 0
# Processed by: cddbd v1.5.1PL2 Copyright (c) Steve Scherf et al.
# Submitted via: EasyCDDAExtractor 9.0.0.1
#
DISCID=800a880b
DTITLE=2ND NATURE - What Comes Natural
DYEAR=1995
DGENRE=R&B
TTITLE0=You
TTITLE1=Can U Show Me
TTITLE2=Since I Met U
TTITLE3=Knö Dat U Knö
TTITLE4=Later
TTITLE5=Iz It Enuf
TTITLE6=This Time
TTITLE7=Be Alright
TTITLE8=I Should Be With You
TTITLE9=Comeback
TTITLE10=Lift Every Voice And Sing
EXTD=
EXTT0=
EXTT1=
EXTT2=
EXTT3=
EXTT4=
EXTT5=
EXTT6=
EXTT7=
EXTT8=
EXTT9=
EXTT10=
PLAYORDER=
